<svg width="19" height="19" viewBox="0 0 19 19" fill="none" xmlns="http://www.w3.org/2000/svg">
<path d="M14.8748 18.2503C14.7433 18.2508 14.6149 18.2098 14.508 18.1331L9.4842 14.4909L4.46037 18.1331C4.35304 18.211 4.22373 18.2526 4.09114 18.2522C3.95855 18.2517 3.82955 18.209 3.72279 18.1304C3.61603 18.0518 3.53704 17.9413 3.49724 17.8148C3.45744 17.6883 3.45889 17.5524 3.50138 17.4269L5.46076 11.6233L0.382635 8.14092C0.272639 8.06557 0.189621 7.95702 0.14571 7.83113C0.101798 7.70524 0.0992954 7.56861 0.138566 7.4412C0.177838 7.31379 0.256825 7.20227 0.363987 7.12294C0.471149 7.04362 0.60087 7.00064 0.734197 7.00029H6.99904L8.88967 1.18193C8.93039 1.05632 9.00986 0.946827 9.11667 0.869174C9.22348 0.791522 9.35214 0.749695 9.4842 0.749695C9.61625 0.749695 9.74491 0.791522 9.85172 0.869174C9.95853 0.946827 10.038 1.05632 10.0787 1.18193L11.9694 7.00224H18.2342C18.3677 7.00218 18.4977 7.04486 18.6052 7.12403C18.7127 7.2032 18.792 7.31471 18.8315 7.44222C18.871 7.56973 18.8687 7.70654 18.8248 7.83262C18.7809 7.9587 18.6978 8.06743 18.5877 8.14287L13.5076 11.6233L15.4658 17.4253C15.4976 17.5192 15.5065 17.6194 15.4919 17.7174C15.4773 17.8155 15.4395 17.9087 15.3818 17.9893C15.324 18.0699 15.248 18.1356 15.1598 18.181C15.0717 18.2263 14.974 18.2501 14.8748 18.2503Z" fill="#FF859B"/>
</svg>
