<?xml version="1.0" standalone="no"?>
<!DOCTYPE svg PUBLIC "-//W3C//DTD SVG 20010904//EN"
 "http://www.w3.org/TR/2001/REC-SVG-20010904/DTD/svg10.dtd">
<svg version="1.0" xmlns="http://www.w3.org/2000/svg"
 width="600.000000pt" height="315.000000pt" viewBox="0 0 600.000000 315.000000"
 preserveAspectRatio="xMidYMid meet">

<g transform="translate(0.000000,315.000000) scale(0.100000,-0.100000)"
fill="#000000" stroke="none">
<path d="M315 2164 c-126 -74 -244 -148 -261 -164 -51 -49 -55 -84 -52 -411
l3 -296 26 -39 c22 -32 70 -64 272 -182 135 -78 257 -142 270 -142 33 0 37 14
37 135 l0 103 -162 93 c-90 51 -173 103 -185 116 -22 22 -23 28 -23 233 0 120
4 219 10 230 5 10 89 64 185 120 l175 102 0 107 c0 112 -7 132 -44 130 -12 -1
-124 -61 -251 -135z"/>
<path d="M700 2281 c-13 -25 -13 -186 0 -211 5 -10 82 -60 170 -110 88 -51
170 -104 180 -118 18 -23 20 -41 20 -223 0 -129 -4 -207 -12 -224 -8 -17 -60
-53 -172 -118 -89 -50 -169 -100 -178 -109 -15 -15 -18 -36 -18 -109 0 -100
10 -129 43 -129 26 0 480 260 520 298 15 14 32 42 38 62 6 22 9 151 7 346 l-3
311 -27 35 c-19 25 -97 76 -271 177 -135 77 -254 141 -266 141 -11 0 -25 -9
-31 -19z"/>
<path d="M2837 2132 c-22 -24 -23 -105 -2 -126 33 -33 161 -34 194 -2 10 11
16 34 16 67 0 68 -16 79 -115 79 -62 0 -80 -4 -93 -18z"/>
<path d="M4157 2132 c-21 -23 -23 -101 -3 -127 18 -24 137 -33 175 -13 42 22
51 107 14 143 -23 23 -165 21 -186 -3z"/>
<path d="M4773 2139 c-59 -11 -133 -45 -165 -76 -15 -14 -37 -48 -50 -77 -23
-50 -23 -56 -26 -464 l-3 -413 108 3 108 3 3 248 2 247 144 0 c112 0 146 3
155 14 7 9 11 38 9 73 l-3 58 -154 3 -154 3 5 67 c6 80 27 126 69 148 43 22
157 32 240 21 86 -11 99 -3 99 62 0 60 -9 72 -61 82 -55 10 -270 10 -326 -2z"/>
<path d="M1673 2133 c-30 -21 -33 -71 -33 -516 0 -344 3 -458 13 -477 l13 -25
279 -3 c298 -3 388 6 495 47 114 43 198 134 237 256 19 63 29 271 15 345 -37
199 -143 306 -352 356 -60 14 -133 18 -365 21 -159 2 -295 0 -302 -4z m621
-198 c100 -37 150 -118 162 -265 15 -179 -39 -309 -149 -355 -47 -20 -217 -37
-327 -33 l-85 3 -3 339 -2 338 177 -4 c137 -4 189 -9 227 -23z"/>
<path d="M499 1904 c-74 -42 -142 -85 -151 -96 -16 -18 -18 -43 -18 -190 0
-93 4 -178 10 -188 13 -24 282 -180 312 -180 36 0 304 158 317 186 7 15 11 89
11 185 l0 161 -27 26 c-36 36 -274 172 -300 172 -10 0 -80 -34 -154 -76z m298
-46 c84 -48 128 -79 134 -95 5 -14 9 -84 9 -158 0 -112 -3 -136 -17 -154 -27
-31 -240 -151 -270 -151 -27 0 -220 106 -261 143 -21 19 -22 28 -22 168 0 125
3 150 18 168 22 26 241 151 266 151 10 0 75 -32 143 -72z"/>
<path d="M3450 1890 c-68 -15 -164 -66 -201 -107 -98 -112 -116 -307 -41 -447
76 -140 232 -192 449 -151 43 8 82 15 87 15 15 0 -3 -121 -22 -154 -26 -45
-75 -66 -152 -66 -82 0 -130 13 -164 45 -42 39 -60 45 -134 45 -82 0 -97 -11
-86 -65 15 -83 97 -133 248 -154 253 -35 441 23 507 156 24 48 24 51 27 434
l3 385 -27 13 c-99 45 -383 74 -494 51z m265 -149 l30 -7 3 -192 2 -192 -27
-12 c-16 -6 -74 -12 -130 -12 -117 -1 -141 10 -182 83 -19 35 -24 58 -24 120
-1 128 51 207 145 221 46 7 134 3 183 -9z"/>
<path d="M5123 1874 c-6 -17 91 -346 138 -464 57 -145 144 -222 267 -237 51
-6 53 -7 47 -32 -12 -48 -50 -105 -85 -129 -31 -21 -44 -23 -125 -20 l-90 3
-3 -63 c-3 -59 -2 -63 23 -72 15 -6 70 -13 123 -16 177 -12 262 35 331 180 44
93 252 837 238 854 -6 8 -38 12 -93 12 -67 0 -88 -4 -101 -18 -11 -10 -48
-127 -92 -285 l-74 -267 -28 0 c-39 0 -97 54 -124 115 -13 27 -48 133 -79 235
-38 124 -64 191 -78 203 -28 24 -185 25 -195 1z"/>
<path d="M2825 1847 c-3 -6 -4 -174 -3 -372 l3 -360 108 -3 107 -3 0 376 0
375 -105 0 c-76 0 -107 -4 -110 -13z"/>
<path d="M4145 1847 c-3 -6 -4 -174 -3 -372 l3 -360 105 0 105 0 3 373 2 372
-105 0 c-76 0 -107 -4 -110 -13z"/>
</g>
</svg>
