<svg width="1120" height="624" viewBox="0 0 1120 624" fill="none" xmlns="http://www.w3.org/2000/svg">
<path fill-rule="evenodd" clip-rule="evenodd" d="M298.917 296.719C298.257 292.894 299.538 288.994 302.356 286.287L320.381 268.956C327.469 262.137 323.555 250.256 313.761 248.85L288.852 245.281C284.958 244.725 281.592 242.313 279.856 238.831L268.715 216.569C266.524 212.187 262.26 210 257.997 210C253.74 210 249.476 212.187 247.285 216.569L236.144 238.831C234.408 242.313 231.042 244.725 227.148 245.281L202.239 248.85C192.445 250.256 188.531 262.137 195.619 268.956L213.644 286.287C216.462 288.994 217.743 292.894 217.083 296.719L212.826 321.194C211.499 328.812 217.637 335 224.6 335C226.435 335 228.329 334.569 230.164 333.619L252.439 322.062C254.182 321.162 256.089 320.713 257.997 320.713C259.911 320.713 261.818 321.162 263.561 322.062L285.836 333.619C287.671 334.569 289.565 335 291.4 335C298.363 335 304.501 328.812 303.174 321.194L298.917 296.719ZM258.022 270.984H262.712V252.638H258.022V270.984ZM249.136 270.984H253.826V252.638H249.136V270.984ZM256.808 301.029H258.228C260.518 301.029 262.561 300.716 264.358 300.089C266.168 299.475 267.71 298.602 268.986 297.471C270.261 296.352 271.235 295.016 271.907 293.462C272.579 291.921 272.915 290.21 272.915 288.328C272.915 286.46 272.579 284.749 271.907 283.194C271.235 281.654 270.261 280.317 268.986 279.186C267.71 278.068 266.168 277.202 264.358 276.588C262.561 275.974 260.518 275.668 258.228 275.668H256.808C254.532 275.668 252.489 275.974 250.678 276.588C248.868 277.215 247.325 278.095 246.05 279.227C244.788 280.358 243.822 281.695 243.15 283.235C242.478 284.79 242.142 286.501 242.142 288.369C242.142 290.251 242.478 291.962 243.15 293.503C243.822 295.057 244.788 296.393 246.05 297.511C247.325 298.63 248.868 299.495 250.678 300.109C252.489 300.723 254.532 301.029 256.808 301.029ZM258.269 294.832H256.808C255.231 294.832 253.832 294.689 252.612 294.403C251.405 294.116 250.384 293.7 249.547 293.155C248.724 292.61 248.1 291.935 247.675 291.13C247.25 290.326 247.037 289.405 247.037 288.369C247.037 287.333 247.25 286.412 247.675 285.608C248.1 284.803 248.724 284.122 249.547 283.563C250.384 283.004 251.405 282.581 252.612 282.294C253.832 282.008 255.231 281.865 256.808 281.865H258.269C259.86 281.865 261.258 282.008 262.465 282.294C263.672 282.581 264.687 282.997 265.509 283.542C266.332 284.101 266.949 284.776 267.361 285.567C267.786 286.371 267.998 287.292 267.998 288.328C267.998 289.364 267.786 290.285 267.361 291.089C266.949 291.894 266.332 292.576 265.509 293.135C264.687 293.694 263.672 294.116 262.465 294.403C261.258 294.689 259.86 294.832 258.269 294.832Z" fill="#4E5455"/>
<path d="M405.309 296V267.562H399.801L399.781 285.824L391.93 267.562H386.402V296H391.93V277.66L399.84 296H405.309ZM421.031 296.391C423.076 296.391 424.846 295.993 426.344 295.199C427.841 294.405 428.935 293.52 429.625 292.543L426.91 289.613C426.285 290.421 425.471 291.026 424.469 291.43C423.466 291.833 422.431 292.035 421.363 292.035C420.608 292.035 419.911 291.918 419.273 291.684C418.635 291.449 418.069 291.117 417.574 290.688C417.092 290.271 416.708 289.809 416.422 289.301C416.135 288.78 415.901 288.096 415.719 287.25V287.191H430.055V284.887C430.055 283.337 429.84 281.924 429.41 280.648C428.98 279.359 428.355 278.259 427.535 277.348C426.702 276.436 425.686 275.733 424.488 275.238C423.303 274.73 421.949 274.477 420.426 274.477C418.954 274.477 417.594 274.743 416.344 275.277C415.094 275.811 414.013 276.56 413.102 277.523C412.19 278.487 411.48 279.639 410.973 280.98C410.465 282.309 410.211 283.78 410.211 285.395V286.176C410.211 287.595 410.465 288.93 410.973 290.18C411.493 291.417 412.229 292.491 413.18 293.402C414.13 294.327 415.27 295.056 416.598 295.59C417.926 296.124 419.404 296.391 421.031 296.391ZM420.387 278.871C421.077 278.871 421.682 278.982 422.203 279.203C422.737 279.411 423.186 279.698 423.551 280.062C423.915 280.44 424.202 280.883 424.41 281.391C424.618 281.898 424.723 282.439 424.723 283.012V283.441H415.816C415.947 282.751 416.142 282.126 416.402 281.566C416.663 281.007 416.988 280.525 417.379 280.121C417.757 279.717 418.199 279.411 418.707 279.203C419.215 278.982 419.775 278.871 420.387 278.871ZM434.801 296H440.25V280.98C440.432 280.694 440.634 280.434 440.855 280.199C441.077 279.965 441.324 279.763 441.598 279.594C441.936 279.359 442.32 279.184 442.75 279.066C443.193 278.949 443.674 278.891 444.195 278.891C444.82 278.891 445.38 278.956 445.875 279.086C446.37 279.203 446.793 279.418 447.145 279.73C447.496 280.043 447.763 280.473 447.945 281.02C448.141 281.553 448.238 282.237 448.238 283.07V296H453.668V282.992C453.668 281.456 453.486 280.154 453.121 279.086C452.77 278.005 452.275 277.12 451.637 276.43C450.986 275.753 450.217 275.258 449.332 274.945C448.447 274.633 447.47 274.477 446.402 274.477C445.569 274.477 444.781 274.594 444.039 274.828C443.297 275.062 442.613 275.401 441.988 275.844C441.624 276.104 441.279 276.397 440.953 276.723C440.628 277.048 440.328 277.406 440.055 277.797L439.723 274.867H434.801V296ZM464.254 277.777V266H458.824V296H464.254V280.746C464.462 280.473 464.69 280.225 464.938 280.004C465.198 279.783 465.484 279.594 465.797 279.438C466.135 279.255 466.513 279.118 466.93 279.027C467.346 278.936 467.796 278.891 468.277 278.891C468.902 278.891 469.462 278.975 469.957 279.145C470.452 279.301 470.875 279.548 471.227 279.887C471.578 280.225 471.845 280.668 472.027 281.215C472.223 281.762 472.32 282.413 472.32 283.168V296H477.75V283.207C477.75 281.658 477.561 280.336 477.184 279.242C476.819 278.135 476.305 277.23 475.641 276.527C474.977 275.824 474.182 275.31 473.258 274.984C472.333 274.646 471.318 274.477 470.211 274.477C469.456 274.477 468.74 274.587 468.062 274.809C467.385 275.03 466.767 275.342 466.207 275.746C465.842 276.007 465.491 276.312 465.152 276.664C464.827 277.003 464.527 277.374 464.254 277.777ZM496.637 296H501.559V274.867H496.109V289.691C495.94 290.03 495.738 290.336 495.504 290.609C495.27 290.883 495.003 291.117 494.703 291.312C494.352 291.534 493.941 291.703 493.473 291.82C493.017 291.938 492.503 291.996 491.93 291.996C491.292 291.996 490.751 291.918 490.309 291.762C489.866 291.605 489.508 291.345 489.234 290.98C488.961 290.629 488.759 290.16 488.629 289.574C488.512 288.988 488.453 288.266 488.453 287.406V274.867H483.023V287.367C483.023 288.969 483.199 290.342 483.551 291.488C483.915 292.621 484.423 293.552 485.074 294.281C485.725 295.023 486.507 295.564 487.418 295.902C488.329 296.241 489.332 296.41 490.426 296.41C491.624 296.41 492.724 296.111 493.727 295.512C494.742 294.913 495.608 294.086 496.324 293.031L496.637 296ZM510.25 274.867H505.582V296H510.523V280.18C510.589 280.01 510.66 279.854 510.738 279.711C510.816 279.568 510.908 279.444 511.012 279.34C511.155 279.197 511.318 279.086 511.5 279.008C511.682 278.93 511.891 278.891 512.125 278.891C512.333 278.891 512.529 278.923 512.711 278.988C512.893 279.04 513.056 279.138 513.199 279.281C513.329 279.424 513.434 279.626 513.512 279.887C513.59 280.147 513.629 280.479 513.629 280.883V296H518.414V280.414C518.414 280.258 518.414 280.134 518.414 280.043C518.414 279.952 518.414 279.893 518.414 279.867C518.479 279.724 518.557 279.6 518.648 279.496C518.74 279.379 518.844 279.275 518.961 279.184C519.104 279.092 519.254 279.021 519.41 278.969C519.579 278.917 519.768 278.891 519.977 278.891C520.172 278.891 520.361 278.923 520.543 278.988C520.738 279.04 520.908 279.138 521.051 279.281C521.194 279.438 521.305 279.646 521.383 279.906C521.474 280.167 521.52 280.499 521.52 280.902V296H526.461V280.922C526.461 279.75 526.344 278.76 526.109 277.953C525.888 277.133 525.576 276.462 525.172 275.941C524.755 275.434 524.267 275.062 523.707 274.828C523.16 274.594 522.568 274.477 521.93 274.477C521.422 274.477 520.953 274.542 520.523 274.672C520.094 274.802 519.71 274.984 519.371 275.219C519.098 275.401 518.844 275.622 518.609 275.883C518.388 276.13 518.186 276.41 518.004 276.723C517.887 276.397 517.743 276.111 517.574 275.863C517.418 275.603 517.229 275.382 517.008 275.199C516.721 274.952 516.383 274.77 515.992 274.652C515.602 274.535 515.159 274.477 514.664 274.477C513.648 274.477 512.783 274.743 512.066 275.277C511.363 275.798 510.81 276.514 510.406 277.426L510.25 274.867ZM560.172 296H565.621V278.871H573.238V274.867H565.621V273.715C565.621 273.09 565.699 272.53 565.855 272.035C566.025 271.54 566.279 271.124 566.617 270.785C566.995 270.382 567.503 270.076 568.141 269.867C568.779 269.659 569.553 269.555 570.465 269.555C571.311 269.555 572.047 269.594 572.672 269.672C573.297 269.75 573.857 269.841 574.352 269.945L574.703 265.688C574.26 265.609 573.831 265.538 573.414 265.473C573.01 265.408 572.607 265.349 572.203 265.297C571.799 265.245 571.383 265.206 570.953 265.18C570.536 265.141 570.1 265.121 569.645 265.121C568.199 265.121 566.891 265.31 565.719 265.688C564.547 266.052 563.551 266.599 562.73 267.328C561.91 268.057 561.279 268.956 560.836 270.023C560.393 271.091 560.172 272.322 560.172 273.715V274.867H554.625V278.871H560.172V296ZM592.145 296H597.652V295.668C597.379 295.134 597.171 294.496 597.027 293.754C596.884 293.012 596.812 292.074 596.812 290.941V281.879C596.812 280.655 596.585 279.581 596.129 278.656C595.673 277.719 595.042 276.944 594.234 276.332C593.427 275.72 592.47 275.258 591.363 274.945C590.27 274.633 589.085 274.477 587.809 274.477C586.389 274.477 585.126 274.659 584.02 275.023C582.926 275.375 582.001 275.857 581.246 276.469C580.478 277.081 579.892 277.79 579.488 278.598C579.098 279.405 578.902 280.258 578.902 281.156H584.332C584.332 280.779 584.384 280.434 584.488 280.121C584.605 279.809 584.781 279.542 585.016 279.32C585.276 279.073 585.615 278.884 586.031 278.754C586.448 278.611 586.943 278.539 587.516 278.539C588.167 278.539 588.733 278.624 589.215 278.793C589.71 278.949 590.12 279.177 590.445 279.477C590.758 279.763 590.992 280.108 591.148 280.512C591.305 280.902 591.383 281.345 591.383 281.84V283.09H588.355C586.793 283.09 585.406 283.233 584.195 283.52C582.997 283.793 581.988 284.197 581.168 284.73C580.257 285.316 579.573 286.065 579.117 286.977C578.661 287.875 578.434 288.91 578.434 290.082C578.434 290.993 578.616 291.84 578.98 292.621C579.345 293.389 579.853 294.053 580.504 294.613C581.155 295.173 581.93 295.609 582.828 295.922C583.74 296.234 584.736 296.391 585.816 296.391C586.48 296.391 587.099 296.326 587.672 296.195C588.245 296.078 588.772 295.909 589.254 295.688C589.723 295.479 590.152 295.232 590.543 294.945C590.934 294.659 591.279 294.353 591.578 294.027C591.643 294.405 591.721 294.763 591.812 295.102C591.904 295.44 592.014 295.74 592.145 296ZM586.969 292.191C586.461 292.191 586.012 292.133 585.621 292.016C585.243 291.885 584.924 291.716 584.664 291.508C584.404 291.286 584.202 291.02 584.059 290.707C583.928 290.382 583.863 290.03 583.863 289.652C583.863 289.171 583.954 288.728 584.137 288.324C584.319 287.908 584.599 287.549 584.977 287.25C585.354 286.964 585.842 286.742 586.441 286.586C587.04 286.417 587.763 286.332 588.609 286.332H591.383V289.965C591.227 290.238 591.012 290.512 590.738 290.785C590.465 291.046 590.139 291.28 589.762 291.488C589.384 291.697 588.961 291.866 588.492 291.996C588.023 292.126 587.516 292.191 586.969 292.191ZM609.684 296H614.781L622.809 274.867H617.145L612.516 289.77L612.223 291.254L611.93 289.77L607.281 274.867H601.617L609.684 296ZM626.246 285.238V285.648C626.246 287.198 626.467 288.63 626.91 289.945C627.353 291.247 628.004 292.38 628.863 293.344C629.71 294.307 630.751 295.062 631.988 295.609C633.238 296.143 634.658 296.41 636.246 296.41C637.822 296.41 639.228 296.143 640.465 295.609C641.702 295.062 642.743 294.307 643.59 293.344C644.436 292.38 645.081 291.247 645.523 289.945C645.966 288.63 646.188 287.198 646.188 285.648V285.238C646.188 283.702 645.966 282.283 645.523 280.98C645.081 279.665 644.436 278.526 643.59 277.562C642.73 276.599 641.682 275.844 640.445 275.297C639.208 274.75 637.796 274.477 636.207 274.477C634.618 274.477 633.206 274.75 631.969 275.297C630.745 275.844 629.71 276.599 628.863 277.562C628.004 278.526 627.353 279.665 626.91 280.98C626.467 282.283 626.246 283.702 626.246 285.238ZM631.676 285.648V285.238C631.676 284.379 631.76 283.565 631.93 282.797C632.099 282.029 632.366 281.352 632.73 280.766C633.095 280.18 633.564 279.717 634.137 279.379C634.71 279.04 635.4 278.871 636.207 278.871C637.027 278.871 637.724 279.04 638.297 279.379C638.87 279.717 639.339 280.18 639.703 280.766C640.055 281.352 640.315 282.029 640.484 282.797C640.654 283.565 640.738 284.379 640.738 285.238V285.648C640.738 286.534 640.654 287.367 640.484 288.148C640.315 288.917 640.055 289.587 639.703 290.16C639.339 290.746 638.87 291.208 638.297 291.547C637.724 291.885 637.04 292.055 636.246 292.055C635.426 292.055 634.723 291.885 634.137 291.547C633.564 291.208 633.095 290.746 632.73 290.16C632.366 289.587 632.099 288.917 631.93 288.148C631.76 287.367 631.676 286.534 631.676 285.648ZM666.188 274.477C664.768 274.477 663.46 274.822 662.262 275.512C661.064 276.189 660.035 277.126 659.176 278.324L659.137 277.855L658.922 274.867H653.863V296H659.293V283.305C659.54 282.706 659.853 282.185 660.23 281.742C660.608 281.299 661.064 280.935 661.598 280.648C662.04 280.401 662.542 280.219 663.102 280.102C663.674 279.971 664.312 279.906 665.016 279.906C665.693 279.906 666.402 279.952 667.145 280.043C667.9 280.121 668.635 280.245 669.352 280.414L670.152 275.004C669.723 274.874 669.156 274.757 668.453 274.652C667.763 274.535 667.008 274.477 666.188 274.477ZM676.48 274.867V279.301H682.496V291.586H676.48V296H693.707V291.586H687.984V274.867H676.48ZM682.105 269.457C682.105 269.874 682.177 270.264 682.32 270.629C682.477 270.98 682.691 271.28 682.965 271.527C683.238 271.788 683.564 271.99 683.941 272.133C684.332 272.276 684.762 272.348 685.23 272.348C686.194 272.348 686.956 272.081 687.516 271.547C688.089 271 688.375 270.303 688.375 269.457C688.375 268.611 688.089 267.921 687.516 267.387C686.956 266.84 686.194 266.566 685.23 266.566C684.762 266.566 684.332 266.638 683.941 266.781C683.564 266.924 683.238 267.12 682.965 267.367C682.691 267.628 682.477 267.94 682.32 268.305C682.177 268.656 682.105 269.04 682.105 269.457ZM709.02 269.691H703.59V274.867H698.766V278.871H703.59V288.48C703.59 289.874 703.772 291.072 704.137 292.074C704.501 293.064 705.022 293.878 705.699 294.516C706.363 295.167 707.164 295.648 708.102 295.961C709.052 296.26 710.107 296.41 711.266 296.41C711.865 296.41 712.47 296.378 713.082 296.312C713.707 296.26 714.306 296.182 714.879 296.078C715.452 295.974 715.992 295.844 716.5 295.688C717.008 295.518 717.451 295.323 717.828 295.102L717.301 291.371C717.053 291.436 716.754 291.501 716.402 291.566C716.064 291.632 715.699 291.69 715.309 291.742C714.905 291.807 714.482 291.859 714.039 291.898C713.609 291.938 713.186 291.957 712.77 291.957C712.197 291.957 711.676 291.892 711.207 291.762C710.751 291.632 710.361 291.41 710.035 291.098C709.71 290.798 709.456 290.395 709.273 289.887C709.104 289.366 709.02 288.721 709.02 287.953V278.871H716.91V274.867H709.02V269.691ZM722.34 285.238V285.648C722.34 287.198 722.561 288.63 723.004 289.945C723.447 291.247 724.098 292.38 724.957 293.344C725.803 294.307 726.845 295.062 728.082 295.609C729.332 296.143 730.751 296.41 732.34 296.41C733.915 296.41 735.322 296.143 736.559 295.609C737.796 295.062 738.837 294.307 739.684 293.344C740.53 292.38 741.174 291.247 741.617 289.945C742.06 288.63 742.281 287.198 742.281 285.648V285.238C742.281 283.702 742.06 282.283 741.617 280.98C741.174 279.665 740.53 278.526 739.684 277.562C738.824 276.599 737.776 275.844 736.539 275.297C735.302 274.75 733.889 274.477 732.301 274.477C730.712 274.477 729.299 274.75 728.062 275.297C726.839 275.844 725.803 276.599 724.957 277.562C724.098 278.526 723.447 279.665 723.004 280.98C722.561 282.283 722.34 283.702 722.34 285.238ZM727.77 285.648V285.238C727.77 284.379 727.854 283.565 728.023 282.797C728.193 282.029 728.46 281.352 728.824 280.766C729.189 280.18 729.658 279.717 730.23 279.379C730.803 279.04 731.493 278.871 732.301 278.871C733.121 278.871 733.818 279.04 734.391 279.379C734.964 279.717 735.432 280.18 735.797 280.766C736.148 281.352 736.409 282.029 736.578 282.797C736.747 283.565 736.832 284.379 736.832 285.238V285.648C736.832 286.534 736.747 287.367 736.578 288.148C736.409 288.917 736.148 289.587 735.797 290.16C735.432 290.746 734.964 291.208 734.391 291.547C733.818 291.885 733.134 292.055 732.34 292.055C731.52 292.055 730.816 291.885 730.23 291.547C729.658 291.208 729.189 290.746 728.824 290.16C728.46 289.587 728.193 288.917 728.023 288.148C727.854 287.367 727.77 286.534 727.77 285.648ZM784.332 296H789.84V295.668C789.566 295.134 789.358 294.496 789.215 293.754C789.072 293.012 789 292.074 789 290.941V281.879C789 280.655 788.772 279.581 788.316 278.656C787.861 277.719 787.229 276.944 786.422 276.332C785.615 275.72 784.658 275.258 783.551 274.945C782.457 274.633 781.272 274.477 779.996 274.477C778.577 274.477 777.314 274.659 776.207 275.023C775.113 275.375 774.189 275.857 773.434 276.469C772.665 277.081 772.079 277.79 771.676 278.598C771.285 279.405 771.09 280.258 771.09 281.156H776.52C776.52 280.779 776.572 280.434 776.676 280.121C776.793 279.809 776.969 279.542 777.203 279.32C777.464 279.073 777.802 278.884 778.219 278.754C778.635 278.611 779.13 278.539 779.703 278.539C780.354 278.539 780.921 278.624 781.402 278.793C781.897 278.949 782.307 279.177 782.633 279.477C782.945 279.763 783.18 280.108 783.336 280.512C783.492 280.902 783.57 281.345 783.57 281.84V283.09H780.543C778.98 283.09 777.594 283.233 776.383 283.52C775.185 283.793 774.176 284.197 773.355 284.73C772.444 285.316 771.76 286.065 771.305 286.977C770.849 287.875 770.621 288.91 770.621 290.082C770.621 290.993 770.803 291.84 771.168 292.621C771.533 293.389 772.04 294.053 772.691 294.613C773.342 295.173 774.117 295.609 775.016 295.922C775.927 296.234 776.923 296.391 778.004 296.391C778.668 296.391 779.286 296.326 779.859 296.195C780.432 296.078 780.96 295.909 781.441 295.688C781.91 295.479 782.34 295.232 782.73 294.945C783.121 294.659 783.466 294.353 783.766 294.027C783.831 294.405 783.909 294.763 784 295.102C784.091 295.44 784.202 295.74 784.332 296ZM779.156 292.191C778.648 292.191 778.199 292.133 777.809 292.016C777.431 291.885 777.112 291.716 776.852 291.508C776.591 291.286 776.389 291.02 776.246 290.707C776.116 290.382 776.051 290.03 776.051 289.652C776.051 289.171 776.142 288.728 776.324 288.324C776.507 287.908 776.786 287.549 777.164 287.25C777.542 286.964 778.03 286.742 778.629 286.586C779.228 286.417 779.951 286.332 780.797 286.332H783.57V289.965C783.414 290.238 783.199 290.512 782.926 290.785C782.652 291.046 782.327 291.28 781.949 291.488C781.572 291.697 781.148 291.866 780.68 291.996C780.211 292.126 779.703 292.191 779.156 292.191ZM796.598 274.867V279.301H802.613V291.586H796.598V296H813.824V291.586H808.102V274.867H796.598ZM802.223 269.457C802.223 269.874 802.294 270.264 802.438 270.629C802.594 270.98 802.809 271.28 803.082 271.527C803.355 271.788 803.681 271.99 804.059 272.133C804.449 272.276 804.879 272.348 805.348 272.348C806.311 272.348 807.073 272.081 807.633 271.547C808.206 271 808.492 270.303 808.492 269.457C808.492 268.611 808.206 267.921 807.633 267.387C807.073 266.84 806.311 266.566 805.348 266.566C804.879 266.566 804.449 266.638 804.059 266.781C803.681 266.924 803.355 267.12 803.082 267.367C802.809 267.628 802.594 267.94 802.438 268.305C802.294 268.656 802.223 269.04 802.223 269.457ZM819.176 296H824.625V280.98C824.807 280.694 825.009 280.434 825.23 280.199C825.452 279.965 825.699 279.763 825.973 279.594C826.311 279.359 826.695 279.184 827.125 279.066C827.568 278.949 828.049 278.891 828.57 278.891C829.195 278.891 829.755 278.956 830.25 279.086C830.745 279.203 831.168 279.418 831.52 279.73C831.871 280.043 832.138 280.473 832.32 281.02C832.516 281.553 832.613 282.237 832.613 283.07V296H838.043V282.992C838.043 281.456 837.861 280.154 837.496 279.086C837.145 278.005 836.65 277.12 836.012 276.43C835.361 275.753 834.592 275.258 833.707 274.945C832.822 274.633 831.845 274.477 830.777 274.477C829.944 274.477 829.156 274.594 828.414 274.828C827.672 275.062 826.988 275.401 826.363 275.844C825.999 276.104 825.654 276.397 825.328 276.723C825.003 277.048 824.703 277.406 824.43 277.797L824.098 274.867H819.176V296ZM842.633 285.277V285.688C842.633 287.224 842.822 288.65 843.199 289.965C843.577 291.267 844.124 292.393 844.84 293.344C845.543 294.294 846.402 295.043 847.418 295.59C848.447 296.124 849.605 296.391 850.895 296.391C852.079 296.391 853.121 296.163 854.02 295.707C854.918 295.251 855.699 294.613 856.363 293.793L856.637 296H861.539V266H856.09V276.762C855.439 276.033 854.69 275.473 853.844 275.082C853.01 274.678 852.04 274.477 850.934 274.477C849.618 274.477 848.447 274.737 847.418 275.258C846.402 275.779 845.536 276.514 844.82 277.465C844.104 278.415 843.557 279.555 843.18 280.883C842.815 282.211 842.633 283.676 842.633 285.277ZM848.062 285.688V285.277C848.062 284.392 848.141 283.565 848.297 282.797C848.453 282.016 848.701 281.332 849.039 280.746C849.378 280.173 849.814 279.724 850.348 279.398C850.895 279.06 851.552 278.891 852.32 278.891C853.245 278.891 854.013 279.092 854.625 279.496C855.237 279.887 855.725 280.44 856.09 281.156V289.711C855.725 290.414 855.23 290.967 854.605 291.371C853.993 291.775 853.219 291.977 852.281 291.977C851.513 291.977 850.862 291.814 850.328 291.488C849.794 291.163 849.358 290.714 849.02 290.141C848.681 289.581 848.434 288.923 848.277 288.168C848.134 287.4 848.062 286.573 848.062 285.688ZM880.426 296H885.934V295.668C885.66 295.134 885.452 294.496 885.309 293.754C885.165 293.012 885.094 292.074 885.094 290.941V281.879C885.094 280.655 884.866 279.581 884.41 278.656C883.954 277.719 883.323 276.944 882.516 276.332C881.708 275.72 880.751 275.258 879.645 274.945C878.551 274.633 877.366 274.477 876.09 274.477C874.671 274.477 873.408 274.659 872.301 275.023C871.207 275.375 870.283 275.857 869.527 276.469C868.759 277.081 868.173 277.79 867.77 278.598C867.379 279.405 867.184 280.258 867.184 281.156H872.613C872.613 280.779 872.665 280.434 872.77 280.121C872.887 279.809 873.062 279.542 873.297 279.32C873.557 279.073 873.896 278.884 874.312 278.754C874.729 278.611 875.224 278.539 875.797 278.539C876.448 278.539 877.014 278.624 877.496 278.793C877.991 278.949 878.401 279.177 878.727 279.477C879.039 279.763 879.273 280.108 879.43 280.512C879.586 280.902 879.664 281.345 879.664 281.84V283.09H876.637C875.074 283.09 873.688 283.233 872.477 283.52C871.279 283.793 870.27 284.197 869.449 284.73C868.538 285.316 867.854 286.065 867.398 286.977C866.943 287.875 866.715 288.91 866.715 290.082C866.715 290.993 866.897 291.84 867.262 292.621C867.626 293.389 868.134 294.053 868.785 294.613C869.436 295.173 870.211 295.609 871.109 295.922C872.021 296.234 873.017 296.391 874.098 296.391C874.762 296.391 875.38 296.326 875.953 296.195C876.526 296.078 877.053 295.909 877.535 295.688C878.004 295.479 878.434 295.232 878.824 294.945C879.215 294.659 879.56 294.353 879.859 294.027C879.924 294.405 880.003 294.763 880.094 295.102C880.185 295.44 880.296 295.74 880.426 296ZM875.25 292.191C874.742 292.191 874.293 292.133 873.902 292.016C873.525 291.885 873.206 291.716 872.945 291.508C872.685 291.286 872.483 291.02 872.34 290.707C872.21 290.382 872.145 290.03 872.145 289.652C872.145 289.171 872.236 288.728 872.418 288.324C872.6 287.908 872.88 287.549 873.258 287.25C873.635 286.964 874.124 286.742 874.723 286.586C875.322 286.417 876.044 286.332 876.891 286.332H879.664V289.965C879.508 290.238 879.293 290.512 879.02 290.785C878.746 291.046 878.421 291.28 878.043 291.488C877.665 291.697 877.242 291.866 876.773 291.996C876.305 292.126 875.797 292.191 875.25 292.191Z" fill="#4E5455"/>
</svg>
