<svg width="53" height="33" viewBox="0 0 53 33" fill="none" xmlns="http://www.w3.org/2000/svg">
          <path fill-rule="evenodd" clip-rule="evenodd"
            d="M33.1649 18.6033C32.7221 19.031 32.5209 19.6472 32.6246 20.2516L33.2935 24.1189C33.5019 25.3228 32.5375 26.3005 31.4435 26.3005C31.1553 26.3005 30.8577 26.2323 30.5694 26.0822L27.0697 24.2562C26.7959 24.114 26.4963 24.0429 26.1955 24.0429C25.8959 24.0429 25.5962 24.114 25.3224 24.2562L21.8227 26.0822C21.5345 26.2323 21.2368 26.3005 20.9486 26.3005C19.8546 26.3005 18.8902 25.3228 19.0987 24.1189L19.7675 20.2516C19.8712 19.6472 19.67 19.031 19.2272 18.6033L16.3953 15.8648C15.2816 14.7874 15.8966 12.91 17.4354 12.6878L21.3488 12.1239C21.9606 12.036 22.4895 11.6548 22.7622 11.1047L24.5126 7.587C24.8568 6.89472 25.5267 6.54907 26.1955 6.54907C26.8654 6.54907 27.5353 6.89472 27.8795 7.587L29.6299 11.1047C29.9026 11.6548 30.4315 12.036 31.0433 12.1239L34.9567 12.6878C36.4956 12.91 37.1105 14.7874 35.9968 15.8648L33.1649 18.6033Z"
            fill="white" />
          <path
            d="M48.7556 10.9129V7.27818C48.7556 3.26088 45.4974 0 41.4791 0V3.64018C43.4869 3.64018 45.1176 5.2698 45.1176 7.27818V10.9129C45.1176 13.0992 46.1016 15.0383 47.6281 16.3726C46.1016 17.7065 45.1176 19.6428 45.1176 21.8302V25.4682C45.1176 27.4776 43.4869 29.1067 41.4774 29.1067V32.7453C45.4936 32.7453 48.7556 29.4888 48.7556 25.4682V21.8302C48.7556 19.8207 50.3863 18.1916 52.3941 18.1916V14.5515C50.383 14.5515 48.7556 12.9218 48.7556 10.9129Z"
            fill="white" />
          <path
            d="M7.27873 10.9151V7.27655C7.27873 5.26708 8.90944 3.638 10.9189 3.638V0C6.90052 0 3.64018 3.25652 3.64018 7.27655L3.63855 10.9151C3.63855 12.9246 2.00947 14.5531 0 14.5531V18.1916L0.00163741 18.1933C2.01111 18.1933 3.64018 19.8223 3.64018 21.8318V25.4665C3.64018 29.4833 6.8967 32.7453 10.9167 32.7453V29.1051C8.90726 29.1051 7.27873 27.476 7.27873 25.4665V21.8318C7.27873 19.645 6.29419 17.7065 4.76826 16.3726C6.29419 15.0383 7.27873 13.1008 7.27873 10.9151Z"
            fill="white" />
        </svg>